<svg width="100%" height="100%" shape-rendering="crispEdges">
  <defs>
    <pattern id="affinity-dots" x="50%" y="0" width="186" height="186" patternUnits="userSpaceOnUse">
      <path style="fill:hsl(162, 100%, 30%)" transform="scale(0.75)" d="m 8,244 v -4 H 4 0 V 220 200 H 12 24 V 188 176 H 12 0 v -4 -4 h 8 8 V 156 144 H 8 0 v -4 -4 H 4 8 V 124 112 H 4 0 V 100 88 h 4 4 v 8 8 h 4 4 V 92 80 H 8 0 V 76 72 H 4 8 V 60 48 H 4 0 V 32 16 H 16 32 V 12 8 H 20 8 V 4 0 H 20 32 V 4 8 H 44 56 V 4 0 h 4 4 v 8 8 h 4 4 v 8 8 H 84 96 V 20 8 H 84 72 V 4 0 h 12 12 v 4 4 h 12 12 V 20 32 H 108 96 v 4 4 H 80 64 V 52 64 H 60 56 V 56 48 H 52 48 V 60 72 H 60 72 V 60 48 h 4 4 v 8 8 h 12 12 V 52 40 h 12 12 v 12 12 h 4 4 v 16 16 h 12 12 v 4 4 h -8 -8 v 4 4 h 12 12 V 100 88 H 156 144 V 76 64 h 8 8 V 60 56 H 148 136 V 44 32 h -4 -4 V 16 0 h 12 12 v 12 12 h -8 -8 v 4 4 h 12 12 V 20 8 h 4 4 v 8 8 h 12 12 V 12 0 h 12 12 v 12 12 h 4 4 v 16 16 h 4 4 v 8 8 h 8 8 v 4 4 h -12 -12 v 12 12 h -4 -4 v -8 -8 h -4 -4 v 12 12 h 12 12 V 100 88 h 8 8 v 4 4 h -4 -4 v 4 4 h 4 4 v 4 4 h -8 -8 v 12 12 h -12 -12 v -8 -8 h -4 -4 v 12 12 h -12 -12 v 20 20 h 4 4 v 16 16 h 12 12 v 4 4 h -8 -8 v 4 4 h 12 12 v -12 -12 h -12 -12 v -4 -4 h 8 8 v -12 -12 h -12 -12 v -12 -12 h 12 12 v -4 -4 h 16 16 v -4 -4 h 4 4 v 4 4 h -4 -4 v 12 12 h 4 4 v 16 16 h -4 -4 v -16 -16 h -12 -12 v -4 -4 h 8 8 v -4 -4 h -12 -12 v 12 12 h 12 12 v 4 4 h -8 -8 v 12 12 h 12 12 v 12 12 h -12 -12 v 4 4 h -16 -16 v 4 4 h -16 -16 v -12 -12 h -12 -12 v 12 12 h -12 -12 v -8 -8 h -4 -4 v 8 8 H 92 88 V 236 224 H 76 64 v 12 12 h -4 -4 v -8 -8 H 44 32 v 8 8 h -4 -4 v -4 -4 h -4 -4 v 4 4 H 12 8 Z m 112,-16 v -12 h 16 16 v -4 -4 h 12 12 v -12 -12 h -12 -12 v -12 -12 h 8 8 v -4 -4 h -12 -12 v -12 -12 h 12 12 v 8 8 h 4 4 v -12 -12 h 12 12 V 100 80 h 12 12 V 68 56 h -12 -12 v 12 12 h -4 -4 v -8 -8 h -12 -12 v 12 12 h 12 12 v 12 12 h -4 -4 v -8 -8 h -4 -4 v 12 12 h -16 -16 v 4 4 h -12 -12 v 12 12 h 12 12 v 12 12 h -4 -4 v -8 -8 h -12 -12 v -16 -16 h -4 -4 V 116 104 H 92 80 v -4 -4 h 16 16 v 12 12 h 12 12 V 108 96 H 124 112 V 84 72 h 4 4 v 8 8 h 4 4 V 76 64 h -12 -12 v 12 12 h -4 -4 V 80 72 H 84 72 V 84 96 H 60 48 V 88 80 H 44 40 V 60 40 H 52 64 V 28 16 H 52 40 V 28 40 H 36 32 V 32 24 H 20 8 v 12 12 h 12 12 v 12 12 h -8 -8 v 4 4 h 12 12 v 12 12 H 28 16 v 16 16 h 4 4 v 12 12 h 12 12 v -12 -12 h 12 12 v 4 4 h -8 -8 v 12 12 H 40 24 v 4 4 h 4 4 v 8 8 h 12 12 v 12 12 h -8 -8 v 4 4 h 12 12 v -12 -12 h 12 12 v 12 12 h 12 12 v 8 8 h 4 4 z M 96,204 v -12 h 12 12 v -12 -12 h 4 4 v 8 8 h 12 12 v 12 12 h -4 -4 v -8 -8 h -12 -12 v 12 12 H 108 96 Z m 16,0 v -4 h -4 -4 v 4 4 h 4 4 z m 16,0 v -4 h 4 4 v 4 4 h -4 -4 z m 32,-8 v -4 h 4 4 v 4 4 h -4 -4 z M 56,180 v -12 h 12 12 v 12 12 H 68 56 Z m 16,0 v -4 h -4 -4 v 4 4 h 4 4 z m -32,0 v -4 h 4 4 v 4 4 h -4 -4 z m 48,-8 V 160 H 76 64 v -4 -4 h 8 8 V 140 128 H 68 56 v -4 -4 h 8 8 v -4 -4 H 60 48 v 12 12 H 36 24 v -12 -12 h 8 8 v -4 -4 h 20 20 v 12 12 h 12 12 v 4 4 h -8 -8 v 12 12 h 12 12 v 12 12 H 100 88 Z m 16,0 v -4 h -4 -4 v 4 4 h 4 4 z M 40,124 v -4 h -4 -4 v 4 4 h 4 4 z m -8,24 v -4 h 4 4 v 4 4 h -4 -4 z m 64,0 v -4 h 4 4 v 4 4 h -4 -4 z m 32,-8 v -4 h 4 4 v 4 4 h -4 -4 z M 88,116 v -4 h 4 4 v 4 4 h -4 -4 z m 32,-8 v -4 h 4 4 v 4 4 h -4 -4 z M 80,84 v -4 h 4 4 v 4 4 h -4 -4 z m 96,-8 v -4 h 4 4 v 4 4 h -4 -4 z m 32,-8 v -4 h 4 4 v 4 4 h -4 -4 z M 16,36 v -4 h 4 4 v 4 4 h -4 -4 z m 32,-8 v -4 h 4 4 v 4 4 h -4 -4 z m 136,200 v -12 h -12 -12 v 12 12 h 12 12 z m -16,0 v -4 h 4 4 v 4 4 h -4 -4 z M 32,220 v -12 h 8 8 v -4 -4 H 36 24 v 12 12 h -4 -4 v -8 -8 H 12 8 v 12 12 h 12 12 z m 200,0 v -4 h -4 -4 v 4 4 h 4 4 z M 80,212 v -4 h -4 -4 v 4 4 h 4 4 z m 88,-40 v -4 h -4 -4 v 4 4 h 4 4 z m 32,-8 v -4 h -4 -4 v 4 4 h 4 4 z m -40,-24 v -4 h -4 -4 v 4 4 h 4 4 z m 32,-8 v -4 h -4 -4 v 4 4 h 4 4 z m 32,-8 v -4 h -4 -4 v 4 4 h 4 4 z M 32,92 v -4 h -4 -4 v 4 4 h 4 4 z m 32,-8 v -4 h -4 -4 v 4 4 h 4 4 z m 96,-8 v -4 h -4 -4 v 4 4 h 4 4 z M 24,60 v -4 h -4 -4 v 4 4 h 4 4 z m 96,-8 v -4 h -4 -4 v 4 4 h 4 4 z m 72,0 v -4 h 12 12 V 36 24 h -12 -12 v 12 12 h -4 -4 v -8 -8 h -12 -12 v 12 12 h 16 16 z m -24,-8 v -4 h 4 4 v 4 4 h -4 -4 z m 32,-8 v -4 h 4 4 v 4 4 h -4 -4 z m -48,8 v -4 h -4 -4 v 4 4 h 4 4 z M 112,20 v -4 h -4 -4 v 4 4 h 4 4 z m 32,-8 V 8 h -4 -4 v 4 4 h 4 4 z m 64,0 V 8 h -4 -4 v 4 4 h 4 4 z M 40,244 v -4 h 4 4 v 4 4 h -4 -4 z m 184,0 v -4 h 12 12 v 4 4 H 236 224 Z M 72,236 v -4 h 4 4 v 4 4 h -4 -4 z m 64,0 v -4 h 4 4 v 4 4 h -4 -4 z m 88,-40 v -4 h 4 4 v 4 4 h -4 -4 z M 8,188 v -4 h 4 4 v 4 4 H 12 8 Z m 184,0 v -4 h 4 4 v 4 4 h -4 -4 z M 0,156 v -4 h 4 4 v 4 4 H 4 0 Z m 240,-32 v -4 h 4 4 v 4 4 h -4 -4 z m 0,-64 v -4 h 4 4 v 4 4 h -4 -4 z M 88,52 v -4 h 4 4 v 4 4 h -4 -4 z m 144,-8 v -4 h 8 8 v 4 4 h -8 -8 z m 0,-16 v -4 h 4 4 v 4 4 h -4 -4 z M 80,20 v -4 h 4 4 v 4 4 H 84 80 Z M 176,8 V 0 h 4 4 v 8 8 h -4 -4 z m 48,0 V 0 h 4 4 v 4 4 h 4 4 V 4 0 h 4 4 v 8 8 h -12 -12 z"/>
    </pattern>
  </defs>
  <rect x="0" y="0" width="100%" height="100%" fill="url(#affinity-dots)"></rect>
</svg> 